PathFileType	4	(X/Y/Z)	C:\Users\Basilio\Documents\Thesis Gigler\squatting_fais\c3dfiles\041\SLS_pre_back5\markers_experimental.trc
DataRate	CameraRate	NumFrames	NumMarkers	Units	OrigDataRate	OrigDataStartFrame	OrigNumFrames
200.000000	200.000000	4	64	mm	200.000000	338	1353
Frame#	Time	FHD			LBHD			RBHD			C7			T10			CLAV			LSHO			LUUPA			LMUPA			LDUPA			LLEP			LMEP			LRAD			LUL			LRFIN			RSHO			RUPA1			RMUPA			RDUPA			RLEP			RMEP			RRAD			RUL			RUFIN			LASI			RASI			USACR			LSACR			RSACR			LTHI1			LTHI2			LTHI3			LTHI4			LLFC			LMFC			LTIB1			LTIB2			LTIB3			LTIB4			LLMAL			LMMAL			LHEE			LMT1			LMT2			LMT5			RTHI			RTHI2			RTHI3			RTHI4			RLFC			RMFC			RTIB1			RTIB2			RTIB3			RTIB4			RLMAL			RMMAL			RHEE			RMT1			RMT2			RMT5			*61			*62			*63			
		X1	Y1	Z1	X2	Y2	Z2	X3	Y3	Z3	X4	Y4	Z4	X5	Y5	Z5	X6	Y6	Z6	X7	Y7	Z7	X8	Y8	Z8	X9	Y9	Z9	X10	Y10	Z10	X11	Y11	Z11	X12	Y12	Z12	X13	Y13	Z13	X14	Y14	Z14	X15	Y15	Z15	X16	Y16	Z16	X17	Y17	Z17	X18	Y18	Z18	X19	Y19	Z19	X20	Y20	Z20	X21	Y21	Z21	X22	Y22	Z22	X23	Y23	Z23	X24	Y24	Z24	X25	Y25	Z25	X26	Y26	Z26	X27	Y27	Z27	X28	Y28	Z28	X29	Y29	Z29	X30	Y30	Z30	X31	Y31	Z31	X32	Y32	Z32	X33	Y33	Z33	X34	Y34	Z34	X35	Y35	Z35	X36	Y36	Z36	X37	Y37	Z37	X38	Y38	Z38	X39	Y39	Z39	X40	Y40	Z40	X41	Y41	Z41	X42	Y42	Z42	X43	Y43	Z43	X44	Y44	Z44	X45	Y45	Z45	X46	Y46	Z46	X47	Y47	Z47	X48	Y48	Z48	X49	Y49	Z49	X50	Y50	Z50	X51	Y51	Z51	X52	Y52	Z52	X53	Y53	Z53	X54	Y54	Z54	X55	Y55	Z55	X56	Y56	Z56	X57	Y57	Z57	X58	Y58	Z58	X59	Y59	Z59	X60	Y60	Z60	X61	Y61	Z61	X62	Y62	Z62	X63	Y63	Z63	X64	Y64	Z64	

339	1.69	-149.3721008300782	1765.811279296875	-1129.052001953125	-321.6881408691407	1689.202026367188	-1205.352294921875	-302.5235595703126	1693.243896484375	-1053.230102539063	-357.0393066406251	1545.46875	-1142.63330078125	-394.6132202148439	1237.551513671875	-1115.42919921875	-198.4822692871094	1485.828735351563	-1142.799072265625	-283.8361206054688	1552.92041015625	-1284.3671875	-177.014404296875	1528.368408203125	-1411.271606445313	-133.8789825439453	1544.907348632813	-1394.136474609375	-119.0157699584961	1526.425903320313	-1450.339965820313	-73.33092498779298	1521.83447265625	-1468.020751953125	-36.46223831176759	1453.38916015625	-1432.42138671875	207.4126892089844	1550.831787109375	-1459.554931640625	191.0066528320313	1557.370971679688	-1530.741821289063	262.5553283691407	1600.650634765625	-1463.559448242188	-274.6345214843751	1565.02880859375	-1011.950500488281	-145.9944763183594	1549.74560546875	-872.9123535156252	-123.2580718994141	1578.700439453125	-907.322937011719	-79.65443420410158	1573.62353515625	-867.114929199219	-34.48926544189454	1579.807006835938	-861.4604492187502	-8.783785820007326	1501.068969726563	-886.3210449218752	230.7869415283204	1600.753784179688	-927.3033447265627	229.351058959961	1607.387573242188	-851.6938476562502	306.3810424804688	1630.041259765625	-932.4648437500002	-231.2803649902344	1037.119873046875	-1207.658569335938	-249.2629699707032	1038.330078125	-980.953063964844	-410.1052246093751	1128.2265625	-1110.202026367188	-425.7119750976564	1102.995239257813	-1137.478759765625	-433.3317260742189	1104.504760742188	-1083.623657226563	-332.5721435546876	828.9157714843752	-1266.781616210938	-289.9849243164063	756.9023437500001	-1253.812255859375	-242.7771759033204	765.5477294921876	-1242.441162109375	-312.8099670410157	701.9549560546876	-1238.843139648438	-287.4427490234376	527.1387329101564	-1201.970092773438	-282.5955200195313	520.5007324218751	-1083.188232421875	-277.6063537597657	340.1575012207032	-1126.679321289063	-330.2023925781251	295.9940185546876	-1184.87646484375	-292.6206665039063	291.1038513183594	-1158.177490234375	-303.5883789062501	218.7966766357422	-1116.56396484375	-372.6685180664063	125.201644897461	-1145.626708984375	-337.7633972167969	142.4352416992188	-1064.7265625	-441.3342285156251	112.967643737793	-1101.396728515625	-237.7592315673829	67.69571685791017	-1055.897216796875	-226.4495544433594	55.6261444091797	-1098.892578125	-270.0623779296876	36.12324905395509	-1155.4501953125	-386.4642028808595	789.6513671875002	-901.9334716796877	-349.4429321289063	735.7714233398439	-889.5661621093752	-316.7757568359376	736.1370239257814	-889.8851318359377	-377.2703552246094	655.8265991210939	-899.280456542969	-389.6114196777345	554.3607177734376	-895.8118896484377	-360.9787902832032	512.9902954101564	-1000.931640625	-492.5424804687501	427.5777282714845	-909.7581787109377	-600.0479736328126	449.8704528808595	-931.557067871094	-578.3660278320314	411.8003540039064	-916.0080566406252	-597.1903686523439	360.1909790039063	-941.8339843750002	-726.6893310546876	339.7436828613282	-957.9786376953127	-673.2301635742189	311.1046752929688	-1019.524658203125	-749.4562377929689	377.5657653808594	-1028.2509765625	-707.7832641601564	167.3104705810547	-1007.725036621094	-725.3098754882814	165.0733795166016	-958.0864257812502	-774.5150146484377	203.2877807617188	-934.1954345703127	-4217.134277343751	853.132507324219	-3944.692626953126	nan	nan	nan	nan	nan	nan	
340	1.695	-149.2862701416016	1765.675170898438	-1129.099609375	-321.5604248046876	1689.09423828125	-1205.558837890625	-302.5812072753907	1693.094848632813	-1053.411376953125	-356.9431762695313	1545.380249023438	-1142.938232421875	-394.6329650878907	1237.537719726563	-1115.377563476563	-198.4642181396485	1485.712646484375	-1143.050048828125	-283.8410644531251	1552.854736328125	-1284.548706054688	-176.9299621582032	1528.23779296875	-1411.440673828125	-133.8965759277344	1544.952880859375	-1394.299926757813	-118.8489456176758	1526.322021484375	-1450.527099609375	-73.17005157470705	1521.85205078125	-1468.11669921875	-36.3583106994629	1453.452514648438	-1432.452758789063	207.7905883789063	1550.970092773438	-1459.661376953125	191.0526733398438	1557.542846679688	-1530.757934570313	262.5453491210938	1600.86474609375	-1463.627319335938	-274.6011047363282	1565.050537109375	-1012.349304199219	-146.1348266601563	1549.908325195313	-873.1841430664065	-123.3490371704102	1578.929077148438	-907.6538085937502	-79.80844879150392	1573.860595703125	-867.3403320312502	-34.69906997680665	1580.035400390625	-861.6123657226565	-8.977153778076174	1501.451171875	-886.3648681640627	230.6809997558594	1601.002075195313	-927.068298339844	229.1266021728516	1607.599975585938	-851.4848632812502	306.2084655761719	1630.1572265625	-932.0354003906252	-231.5067443847657	1037.1669921875	-1207.5048828125	-249.2927856445313	1038.289672851563	-980.8321533203127	-410.1162109375001	1128.204345703125	-1109.994262695313	-425.5488586425782	1102.815063476563	-1137.359619140625	-431.3183898925782	1104.685424804688	-1082.839599609375	-332.6631774902344	828.8820800781252	-1266.648559570313	-289.9676513671876	756.8493041992189	-1253.751586914063	-242.8163757324219	765.5684814453126	-1242.304443359375	-312.7901000976563	701.8634033203126	-1238.771606445313	-287.3873901367188	527.1598510742189	-1201.847045898438	-282.4962463378907	520.4562988281251	-1083.14697265625	-277.4707336425782	340.1683044433594	-1126.697998046875	-330.2260131835938	296.0615844726563	-1184.857055664063	-292.4796142578126	291.1146545410157	-1158.234497070313	-303.5706787109376	218.7877502441407	-1116.649780273438	-372.7141723632813	125.1830062866211	-1145.672729492188	-337.7107849121094	142.4493408203125	-1064.79541015625	-441.3389892578126	113.0099105834961	-1101.408203125	-237.7517089843751	67.72840118408205	-1055.918090820313	-226.4932708740235	55.69028854370119	-1098.933471679688	-269.8979187011719	35.98323059082032	-1155.400268554688	-386.3271484375001	789.5242309570315	-901.860778808594	-349.4562683105469	735.2484741210939	-889.6121215820315	-316.9442749023438	735.3704223632814	-890.669372558594	-377.1332702636719	655.7735595703126	-899.2753906250002	-389.4995727539064	554.2828369140626	-895.792907714844	-360.7873535156251	512.9627075195314	-1000.949584960938	-492.3114624023439	427.3664550781251	-909.854919433594	-599.8723754882814	449.8491210937501	-931.7066650390627	-578.1346435546876	411.659637451172	-916.1953735351565	-597.0281982421876	360.0881652832032	-941.950866699219	-726.4976196289064	339.6457824707032	-958.1367797851565	-673.1283569335939	310.9998474121094	-1019.697143554688	-749.2167968750001	377.5110473632813	-1028.296875	-707.3924560546876	167.1222839355469	-1008.180480957031	-725.0357055664064	164.97119140625	-958.5786132812502	-774.2200927734377	203.0349273681641	-934.5209960937502	-4216.809082031251	853.0910644531252	-3944.723632812501	nan	nan	nan	nan	nan	nan	
341	1.7	-149.3215637207032	1765.652954101563	-1129.127075195313	-321.3449401855469	1688.9462890625	-1205.797119140625	-302.6564941406251	1692.89697265625	-1054.148071289063	-356.8790893554688	1545.285522460938	-1143.27294921875	-394.6446838378907	1237.499755859375	-1115.320678710938	-198.4164581298829	1485.603637695313	-1143.247436523438	-283.6799316406251	1552.798828125	-1284.791015625	-176.5880737304688	1527.816162109375	-1411.578979492188	-133.8266296386719	1544.890380859375	-1394.497924804688	-118.7465744018555	1526.236572265625	-1450.7099609375	-73.03733825683595	1521.81298828125	-1468.213012695313	-36.15206909179688	1453.609130859375	-1432.529418945313	207.8768310546876	1551.149291992188	-1459.619995117188	191.1889801025391	1557.631225585938	-1530.784057617188	262.9022521972657	1601.038208007813	-1463.6650390625	-274.6003417968751	1565.1103515625	-1012.765991210938	-146.3084869384766	1550.263793945313	-873.483581542969	-123.3160018920899	1579.391479492188	-908.0131835937502	-79.99224090576173	1574.2109375	-867.565856933594	-34.87787246704102	1580.4921875	-861.727966308594	-8.902953147888185	1501.607666015625	-886.320983886719	230.5919036865235	1601.1875	-926.899597167969	228.9477081298829	1607.896850585938	-851.2200927734377	306.0178222656251	1630.365356445313	-931.7192993164065	-231.5221862792969	1037.001586914063	-1207.392944335938	-249.2874145507813	1038.266479492188	-980.7109985351565	-410.1372070312501	1128.279052734375	-1109.796752929688	-425.8221130371095	1103.04541015625	-1137.0927734375	-433.4888916015626	1104.588623046875	-1083.29150390625	-332.7735290527344	828.8828125000002	-1266.505004882813	-289.5503845214844	756.5138549804689	-1253.520629882813	-242.8435363769532	765.5975341796876	-1242.143432617188	-312.8203430175782	701.8678588867189	-1238.674560546875	-287.4328308105469	527.1703491210939	-1201.77734375	-282.3869628906251	520.3310546875001	-1083.085815429688	-277.3803100585938	340.1917724609376	-1126.74560546875	-330.2640380859376	296.0439147949219	-1184.745849609375	-292.4448242187501	291.1549377441407	-1158.220458984375	-303.4889831542969	218.7653961181641	-1116.599487304688	-372.7313537597657	125.2186737060547	-1145.69775390625	-337.7002563476563	142.5066375732422	-1064.85205078125	-441.3741760253907	113.0121688842774	-1101.4013671875	-237.7814331054688	67.74105834960939	-1055.921142578125	-226.4814453125001	55.6323928833008	-1098.954833984375	-270.0922241210938	36.05335998535157	-1155.487670898438	-386.1795654296876	789.4226684570315	-901.7414550781252	-349.2978515625001	735.0995483398439	-889.4649047851565	-316.8040771484376	735.3460083007814	-890.687194824219	-376.8280029296876	655.6336059570314	-899.2404785156252	-389.3167724609376	554.0941772460939	-895.917663574219	-360.6296081542969	512.9373168945314	-1001.041076660156	-492.1434936523439	427.1880187988282	-909.8435058593752	-599.5787963867189	449.6841125488282	-931.8759765625002	-577.8350830078126	411.4836425781251	-916.2976074218752	-596.7612304687501	360.1128540039063	-942.0247192382815	-726.1387939453126	339.4277648925782	-958.270935058594	-672.8837280273439	310.8954467773438	-1019.871826171875	-749.1001586914064	377.4716796875001	-1028.404052734375	-707.1155395507814	167.0315551757813	-1008.748840332031	-724.7985229492189	164.8809051513672	-958.9158935546877	-774.0493164062502	202.9730834960938	-934.7572021484377	-4217.266113281251	853.194519042969	-3944.685302734376	nan	nan	nan	nan	nan	nan	
342	1.705	-149.2467498779297	1765.575805664063	-1129.09375	-321.1439208984376	1688.858764648438	-1206.130004882813	-302.7431945800782	1692.68359375	-1054.418823242188	-356.7921142578126	1545.222778320313	-1143.602905273438	-394.5974121093751	1237.450561523438	-1115.260009765625	-198.3543243408204	1485.516235351563	-1143.404174804688	-283.5112304687501	1552.746948242188	-1284.992553710938	-176.5429840087891	1527.717895507813	-1411.789916992188	-133.7951354980469	1544.878784179688	-1394.703857421875	-118.5828323364258	1526.07958984375	-1450.9169921875	-72.8565139770508	1521.793823242188	-1468.372192382813	-35.93196487426759	1453.589599609375	-1432.556396484375	208.0994567871094	1551.276123046875	-1459.724487304688	191.2859802246094	1557.686645507813	-1530.801391601563	262.8750610351563	1601.248901367188	-1463.748657226563	-274.6268920898438	1565.14697265625	-1013.14111328125	-146.4834747314453	1550.514526367188	-873.7036132812502	-123.4921188354492	1579.556762695313	-908.2342529296877	-80.1033172607422	1574.4453125	-867.8065185546877	-34.97235870361329	1580.852294921875	-861.960632324219	-8.926681518554689	1501.934692382813	-886.3972167968752	230.5694732666016	1601.49169921875	-926.7238769531252	228.6121063232422	1608.186401367188	-850.8681640625002	305.8810424804688	1630.486206054688	-931.4026489257815	-231.6126556396485	1036.974609375	-1207.281127929688	-249.3255157470704	1038.249389648438	-980.5881347656252	-410.1365356445314	1128.300170898438	-1109.663696289063	-425.6191406250001	1102.834716796875	-1137.000244140625	-431.892303466797	1104.76806640625	-1082.693603515625	-332.8382263183594	828.8333129882815	-1266.342895507813	-289.5727539062501	756.4829101562501	-1253.423583984375	-243.1422424316407	765.6654052734376	-1242.014892578125	-312.8240661621094	701.7628173828126	-1238.606689453125	-287.3013000488282	527.1836547851564	-1201.660522460938	-282.2806396484376	520.3241577148439	-1082.981567382813	-277.2825317382813	340.1037902832032	-1126.70654296875	-330.1977844238282	296.0890502929688	-1184.7001953125	-292.4147949218751	291.1564941406251	-1158.20263671875	-303.4732666015626	218.6907501220704	-1116.66552734375	-372.7290649414063	125.1920623779297	-1145.742553710938	-337.6826171875001	142.5019683837891	-1064.928955078125	-441.3133239746095	112.9912490844727	-1101.437866210938	-237.7891082763672	67.72330474853517	-1055.947631835938	-226.4455871582032	55.74378585815431	-1098.9501953125	-269.9244079589844	35.92405319213868	-1155.474365234375	-386.0161132812501	789.292907714844	-901.634704589844	-349.0437927246094	735.2468872070314	-889.351013183594	-316.2801208496094	735.7050781250001	-890.0589599609377	-376.5498352050782	655.5020141601564	-899.2219848632815	-389.0569152832032	554.0076904296876	-896.0154418945315	-360.3847961425782	512.8858642578126	-1001.112915039063	-492.0010681152345	427.0979919433595	-909.7456054687502	-599.3061523437501	449.5863647460939	-931.9982910156252	-577.5875854492189	411.2862854003907	-916.4107666015627	-596.4597167968751	359.9153137207032	-942.1345825195315	-725.7967529296876	339.3075866699219	-958.428649902344	-672.6228637695314	310.8508911132813	-1020.097900390625	-748.9541015625001	377.4442443847657	-1028.490356445313	-706.9822998046876	166.8490142822266	-1008.99267578125	-724.5714721679689	164.7625885009766	-959.337341308594	-773.8178710937502	202.8802032470704	-935.0042724609377	-4217.397949218751	853.1984863281252	-3944.677734375001	nan	nan	nan	nan	nan	nan	
